<svg xmlns="http://www.w3.org/2000/svg" viewBox="0 0 640 360" width="640" height="360" role="img">

  <defs>
    <linearGradient id="bg" x1="0" y1="0" x2="1" y2="1">
      <stop offset="0%" stop-color="#050816" />
      <stop offset="55%" stop-color="#0B1030" />
      <stop offset="100%" stop-color="#160B3A" />
    </linearGradient>
    <linearGradient id="stroke" x1="0" y1="0" x2="1" y2="1">
      <stop offset="0%" stop-color="#4FA9FF" />
      <stop offset="100%" stop-color="#6C2BFB" />
    </linearGradient>
    <linearGradient id="glass" x1="0" y1="0" x2="0" y2="1">
      <stop offset="0%" stop-color="#ffffff" stop-opacity="0.10" />
      <stop offset="100%" stop-color="#ffffff" stop-opacity="0.02" />
    </linearGradient>
    <radialGradient id="orbBlue" cx="50%" cy="50%" r="50%">
      <stop offset="0%" stop-color="#0A84FF" stop-opacity="0.55" />
      <stop offset="100%" stop-color="#0A84FF" stop-opacity="0" />
    </radialGradient>
    <radialGradient id="orbViolet" cx="50%" cy="50%" r="50%">
      <stop offset="0%" stop-color="#6C2BFB" stop-opacity="0.55" />
      <stop offset="100%" stop-color="#6C2BFB" stop-opacity="0" />
    </radialGradient>
    <pattern id="dots" width="22" height="22" patternUnits="userSpaceOnUse">
      <circle cx="1.6" cy="1.6" r="1.6" fill="#4FA9FF" fill-opacity="0.16" />
    </pattern>
    <filter id="soft" x="-40%" y="-40%" width="180%" height="180%">
      <feGaussianBlur stdDeviation="7" />
    </filter>
  </defs>

  <rect width="640" height="360" fill="url(#bg)" />
  <rect width="640" height="360" fill="url(#dots)" />
  <circle cx="110" cy="90" r="150" fill="url(#orbBlue)" />
    <circle cx="540" cy="290" r="160" fill="url(#orbViolet)" />
<rect x="74" y="72" width="300" height="224" rx="18"
    fill="url(#glass)" stroke="#4FA9FF" stroke-opacity="0.35" stroke-width="1.5" />
<path d="M 74 112 h 300" stroke="#4FA9FF" stroke-opacity="0.3" stroke-width="1.3" />
<circle cx="100" cy="92" r="5" fill="#4FA9FF" /><circle cx="118" cy="92" r="5" fill="#C084FC" />
<rect x="96" y="136" width="34" height="26" rx="6"
            fill="#0B1030" fill-opacity="0.7"
            stroke="#4FA9FF" stroke-opacity="0.3" stroke-width="1.3" />
<rect x="142" y="136" width="34" height="26" rx="6"
            fill="#0B1030" fill-opacity="0.7"
            stroke="#4FA9FF" stroke-opacity="0.3" stroke-width="1.3" />
<rect x="188" y="136" width="34" height="26" rx="6"
            fill="#0B1030" fill-opacity="0.7"
            stroke="#4FA9FF" stroke-opacity="0.3" stroke-width="1.3" />
<rect x="234" y="136" width="34" height="26" rx="6"
            fill="#0B1030" fill-opacity="0.7"
            stroke="#4FA9FF" stroke-opacity="0.3" stroke-width="1.3" />
<rect x="280" y="136" width="34" height="26" rx="6"
            fill="#0B1030" fill-opacity="0.7"
            stroke="#4FA9FF" stroke-opacity="0.3" stroke-width="1.3" />
<rect x="96" y="174" width="34" height="26" rx="6"
            fill="#0B1030" fill-opacity="0.7"
            stroke="#4FA9FF" stroke-opacity="0.3" stroke-width="1.3" />
<rect x="142" y="174" width="34" height="26" rx="6"
            fill="#0B1030" fill-opacity="0.7"
            stroke="#4FA9FF" stroke-opacity="0.3" stroke-width="1.3" />
<rect x="188" y="174" width="34" height="26" rx="6"
            fill="#0B1030" fill-opacity="0.7"
            stroke="#4FA9FF" stroke-opacity="0.3" stroke-width="1.3" />
<rect x="234" y="174" width="34" height="26" rx="6"
            fill="#0B1030" fill-opacity="0.7"
            stroke="#4FA9FF" stroke-opacity="0.3" stroke-width="1.3" />
<rect x="280" y="174" width="34" height="26" rx="6"
            fill="#0B1030" fill-opacity="0.7"
            stroke="#4FA9FF" stroke-opacity="0.3" stroke-width="1.3" />
<rect x="96" y="212" width="34" height="26" rx="6"
            fill="#0B1030" fill-opacity="0.7"
            stroke="#4FA9FF" stroke-opacity="0.3" stroke-width="1.3" />
<rect x="142" y="212" width="34" height="26" rx="6"
            fill="#0B1030" fill-opacity="0.7"
            stroke="#4FA9FF" stroke-opacity="0.3" stroke-width="1.3" />
<rect x="188" y="212" width="34" height="26" rx="6"
            fill="#0B1030" fill-opacity="0.7"
            stroke="#4FA9FF" stroke-opacity="0.3" stroke-width="1.3" />
<rect x="234" y="212" width="34" height="26" rx="6"
            fill="#6C2BFB" fill-opacity="0.8"
            stroke="#C084FC" stroke-opacity="0.95" stroke-width="1.3" />
<rect x="280" y="212" width="34" height="26" rx="6"
            fill="#0B1030" fill-opacity="0.7"
            stroke="#4FA9FF" stroke-opacity="0.3" stroke-width="1.3" />
<rect x="96" y="250" width="34" height="26" rx="6"
            fill="#0B1030" fill-opacity="0.7"
            stroke="#4FA9FF" stroke-opacity="0.3" stroke-width="1.3" />
<rect x="142" y="250" width="34" height="26" rx="6"
            fill="#0B1030" fill-opacity="0.7"
            stroke="#4FA9FF" stroke-opacity="0.3" stroke-width="1.3" />
<rect x="188" y="250" width="34" height="26" rx="6"
            fill="#0B1030" fill-opacity="0.7"
            stroke="#4FA9FF" stroke-opacity="0.3" stroke-width="1.3" />
<rect x="234" y="250" width="34" height="26" rx="6"
            fill="#0B1030" fill-opacity="0.7"
            stroke="#4FA9FF" stroke-opacity="0.3" stroke-width="1.3" />
<rect x="280" y="250" width="34" height="26" rx="6"
            fill="#0B1030" fill-opacity="0.7"
            stroke="#4FA9FF" stroke-opacity="0.3" stroke-width="1.3" />
<g>
        <circle cx="472" cy="184" r="64" fill="url(#glass)" stroke="url(#stroke)" stroke-width="2.4" />
        <circle cx="472" cy="184" r="52" fill="none" stroke="#4FA9FF" stroke-opacity="0.25" stroke-width="1.2" />
        <path d="M 472 184 V 146 M 472 184 L 500 198" stroke="#C084FC" stroke-width="3" stroke-linecap="round" />
        <circle cx="472" cy="184" r="5" fill="#C084FC" />
      </g>
<path d="M 380 184 L 404 184" stroke="url(#stroke)" stroke-width="1.6"
    stroke-opacity="0.75" fill="none" stroke-dasharray="6 7" stroke-linecap="round" />
</svg>
