<svg xmlns="http://www.w3.org/2000/svg" viewBox="0 0 640 360" width="640" height="360" role="img">

  <defs>
    <linearGradient id="bg" x1="0" y1="0" x2="1" y2="1">
      <stop offset="0%" stop-color="#050816" />
      <stop offset="55%" stop-color="#0B1030" />
      <stop offset="100%" stop-color="#160B3A" />
    </linearGradient>
    <linearGradient id="stroke" x1="0" y1="0" x2="1" y2="1">
      <stop offset="0%" stop-color="#4FA9FF" />
      <stop offset="100%" stop-color="#6C2BFB" />
    </linearGradient>
    <linearGradient id="glass" x1="0" y1="0" x2="0" y2="1">
      <stop offset="0%" stop-color="#ffffff" stop-opacity="0.10" />
      <stop offset="100%" stop-color="#ffffff" stop-opacity="0.02" />
    </linearGradient>
    <radialGradient id="orbBlue" cx="50%" cy="50%" r="50%">
      <stop offset="0%" stop-color="#0A84FF" stop-opacity="0.55" />
      <stop offset="100%" stop-color="#0A84FF" stop-opacity="0" />
    </radialGradient>
    <radialGradient id="orbViolet" cx="50%" cy="50%" r="50%">
      <stop offset="0%" stop-color="#6C2BFB" stop-opacity="0.55" />
      <stop offset="100%" stop-color="#6C2BFB" stop-opacity="0" />
    </radialGradient>
    <pattern id="dots" width="22" height="22" patternUnits="userSpaceOnUse">
      <circle cx="1.6" cy="1.6" r="1.6" fill="#4FA9FF" fill-opacity="0.16" />
    </pattern>
    <filter id="soft" x="-40%" y="-40%" width="180%" height="180%">
      <feGaussianBlur stdDeviation="7" />
    </filter>
  </defs>

  <rect width="640" height="360" fill="url(#bg)" />
  <rect width="640" height="360" fill="url(#dots)" />
  <circle cx="110" cy="300" r="150" fill="url(#orbBlue)" />
    <circle cx="540" cy="80" r="170" fill="url(#orbViolet)" />
<rect x="52" y="72" width="196" height="216" rx="16"
    fill="url(#glass)" stroke="#4FA9FF" stroke-opacity="0.35" stroke-width="1.5" />
<rect x="74" y="100" width="110" height="7" rx="3.5" fill="#4FA9FF" fill-opacity="0.55" />
<rect x="74" y="128" width="152" height="30" rx="8" fill="#0B1030" fill-opacity="0.75" stroke="#4FA9FF" stroke-opacity="0.35" stroke-width="1.3" /><rect x="86" y="141" width="76" height="5" rx="2.5" fill="#4FA9FF" fill-opacity="0.35" />
<rect x="74" y="174" width="152" height="30" rx="8" fill="#0B1030" fill-opacity="0.75" stroke="#4FA9FF" stroke-opacity="0.35" stroke-width="1.3" /><rect x="86" y="187" width="76" height="5" rx="2.5" fill="#4FA9FF" fill-opacity="0.35" />
<rect x="74" y="220" width="152" height="30" rx="8" fill="#0B1030" fill-opacity="0.75" stroke="#4FA9FF" stroke-opacity="0.35" stroke-width="1.3" /><rect x="86" y="233" width="76" height="5" rx="2.5" fill="#4FA9FF" fill-opacity="0.35" />
<rect x="74" y="266" width="86" height="22" rx="11" fill="url(#stroke)" fill-opacity="0.85" />
<path d="M 254 180 L 356 180" stroke="url(#stroke)" stroke-width="1.6"
    stroke-opacity="0.75" fill="none" stroke-dasharray="6 7" stroke-linecap="round" />
<g>
    <circle cx="305" cy="180" r="18.2" fill="#4FA9FF" fill-opacity="0.14" filter="url(#soft)" />
    <circle cx="305" cy="180" r="7" fill="none" stroke="#4FA9FF" stroke-width="2" />
    <circle cx="305" cy="180" r="2.692307692307692" fill="#4FA9FF" />
  </g>
<path d="M 340 172 l 14 8 l -14 8 z" fill="#4FA9FF" fill-opacity="0.9" />
<g>
      <ellipse cx="462" cy="112" rx="62" ry="20" fill="url(#glass)" stroke="#6C2BFB" stroke-opacity="0.75" stroke-width="2" />
      <path d="M 400 112 v 68 a 62 20 0 0 0 124 0 v -68" fill="url(#glass)" stroke="#6C2BFB" stroke-opacity="0.75" stroke-width="2" />
      <ellipse cx="462" cy="146" rx="62" ry="20" fill="none" stroke="#6C2BFB" stroke-opacity="0.45" stroke-width="1.4" />
    </g>
<rect x="430" y="150" width="64" height="5" rx="2.5" fill="#C084FC" fill-opacity="0.5" />
<rect x="430" y="186" width="48" height="5" rx="2.5" fill="#C084FC" fill-opacity="0.35" />
</svg>
